<?xml version="1.0" encoding="UTF-8"?>
<svg xmlns="http://www.w3.org/2000/svg" width="1254" height="1254" viewBox="0 0 1254 1254" role="img" aria-label="Black and white outline silhouette anime character">
  <path d="M 910.0 1210.0 L 909.0 1224.0 L 911.0 1235.0 L 911.0 1246.0 L 912.0 1247.0 L 912.0 1253.0 L 916.0 1253.0 L 916.0 1240.0 L 913.0 1213.0 L 912.0 1211.0 Z M 682.0 1207.0 L 683.0 1210.0 L 687.0 1212.0 L 697.0 1215.0 L 729.0 1230.0 L 752.0 1244.0 L 764.0 1253.0 L 775.0 1253.0 L 748.0 1234.0 L 727.0 1222.0 L 697.0 1209.0 L 688.0 1206.0 Z M 517.0 1048.0 L 515.0 1048.0 L 512.0 1051.0 L 496.0 1075.0 L 491.0 1080.0 L 485.0 1088.0 L 483.0 1088.0 L 482.0 1092.0 L 459.0 1116.0 L 457.0 1119.0 L 457.0 1122.0 L 460.0 1122.0 L 480.0 1102.0 L 503.0 1074.0 L 514.0 1058.0 L 517.0 1052.0 Z M 444.0 1011.0 L 444.0 1018.0 L 447.0 1025.0 L 449.0 1034.0 L 450.0 1044.0 L 450.0 1073.0 L 451.0 1075.0 L 454.0 1073.0 L 454.0 1033.0 L 451.0 1020.0 L 446.0 1011.0 Z M 505.0 905.0 L 504.0 909.0 L 507.0 924.0 L 521.0 977.0 L 527.0 996.0 L 530.0 1000.0 L 532.0 1000.0 L 532.0 995.0 L 525.0 973.0 L 510.0 908.0 L 509.0 906.0 Z M 460.0 847.0 L 457.0 851.0 L 454.0 864.0 L 449.0 878.0 L 434.0 908.0 L 413.0 942.0 L 385.0 978.0 L 385.0 982.0 L 389.0 980.0 L 400.0 967.0 L 416.0 946.0 L 434.0 919.0 L 447.0 894.0 L 454.0 878.0 L 461.0 854.0 Z M 362.0 0.0 L 406.0 41.0 L 433.0 73.0 L 449.0 95.0 L 465.0 121.0 L 479.0 149.0 L 478.0 152.0 L 457.0 150.0 L 417.0 150.0 L 379.0 156.0 L 348.0 164.0 L 301.0 181.0 L 265.0 199.0 L 263.0 201.0 L 264.0 205.0 L 312.0 220.0 L 372.0 247.0 L 400.0 264.0 L 429.0 284.0 L 464.0 313.0 L 463.0 317.0 L 460.0 319.0 L 426.0 326.0 L 394.0 337.0 L 384.0 343.0 L 386.0 347.0 L 424.0 348.0 L 465.0 354.0 L 511.0 366.0 L 539.0 377.0 L 540.0 380.0 L 537.0 392.0 L 537.0 411.0 L 539.0 423.0 L 544.0 439.0 L 563.0 480.0 L 582.0 512.0 L 594.0 529.0 L 594.0 533.0 L 542.0 536.0 L 519.0 540.0 L 500.0 546.0 L 488.0 552.0 L 474.0 562.0 L 459.0 576.0 L 449.0 588.0 L 442.0 591.0 L 432.0 599.0 L 422.0 614.0 L 414.0 633.0 L 398.0 648.0 L 388.0 662.0 L 383.0 672.0 L 382.0 686.0 L 386.0 698.0 L 391.0 707.0 L 391.0 711.0 L 333.0 777.0 L 311.0 808.0 L 291.0 841.0 L 290.0 868.0 L 295.0 897.0 L 298.0 907.0 L 300.0 912.0 L 301.0 905.0 L 297.0 889.0 L 294.0 869.0 L 294.0 850.0 L 297.0 838.0 L 307.0 812.0 L 329.0 780.0 L 357.0 744.0 L 388.0 709.0 L 391.0 709.0 L 394.0 715.0 L 404.0 729.0 L 420.0 746.0 L 441.0 763.0 L 465.0 779.0 L 487.0 791.0 L 511.0 801.0 L 533.0 808.0 L 563.0 813.0 L 592.0 815.0 L 601.0 813.0 L 600.0 809.0 L 591.0 809.0 L 558.0 805.0 L 537.0 801.0 L 510.0 794.0 L 487.0 786.0 L 463.0 774.0 L 440.0 760.0 L 420.0 744.0 L 403.0 727.0 L 394.0 714.0 L 394.0 710.0 L 400.0 705.0 L 412.0 694.0 L 426.0 679.0 L 440.0 661.0 L 451.0 646.0 L 455.0 640.0 L 458.0 641.0 L 478.0 648.0 L 509.0 658.0 L 539.0 667.0 L 577.0 675.0 L 615.0 680.0 L 643.0 682.0 L 674.0 683.0 L 683.0 681.0 L 683.0 679.0 L 670.0 679.0 L 633.0 677.0 L 586.0 672.0 L 544.0 665.0 L 504.0 656.0 L 479.0 649.0 L 461.0 643.0 L 460.0 641.0 L 461.0 637.0 L 470.0 624.0 L 484.0 608.0 L 506.0 590.0 L 533.0 574.0 L 558.0 562.0 L 588.0 552.0 L 617.0 546.0 L 647.0 542.0 L 674.0 541.0 L 699.0 542.0 L 722.0 545.0 L 750.0 551.0 L 779.0 561.0 L 804.0 572.0 L 825.0 584.0 L 845.0 599.0 L 860.0 614.0 L 870.0 627.0 L 876.0 640.0 L 878.0 654.0 L 875.0 670.0 L 868.0 687.0 L 856.0 707.0 L 841.0 726.0 L 820.0 747.0 L 795.0 768.0 L 765.0 789.0 L 731.0 808.0 L 694.0 825.0 L 655.0 840.0 L 617.0 851.0 L 578.0 859.0 L 541.0 863.0 L 512.0 864.0 L 487.0 863.0 L 461.0 859.0 L 437.0 853.0 L 417.0 846.0 L 403.0 839.0 L 398.0 833.0 L 402.0 827.0 L 415.0 816.0 L 438.0 801.0 L 470.0 786.0 L 508.0 774.0 L 548.0 765.0 L 586.0 761.0 L 619.0 760.0 L 644.0 762.0 L 668.0 767.0 L 696.0 776.0 L 724.0 790.0 L 748.0 805.0 L 769.0 821.0 L 785.0 838.0 L 797.0 856.0 L 803.0 873.0 L 805.0 889.0 L 802.0 905.0 L 795.0 921.0 L 784.0 937.0 L 769.0 952.0 L 751.0 967.0 L 729.0 980.0 L 703.0 991.0 L 674.0 1000.0 L 643.0 1006.0 L 610.0 1009.0 L 576.0 1008.0 L 543.0 1004.0 L 513.0 997.0 L 489.0 988.0 L 470.0 978.0 L 457.0 967.0 L 452.0 957.0 L 452.0 948.0 L 458.0 938.0 L 472.0 926.0 L 494.0 914.0 L 522.0 904.0 L 553.0 897.0 L 585.0 894.0 L 612.0 895.0 L 634.0 899.0 L 654.0 906.0 L 675.0 917.0 L 692.0 930.0 L 704.0 944.0 L 712.0 958.0 L 715.0 972.0 L 714.0 986.0 L 709.0 1000.0 L 700.0 1013.0 L 687.0 1025.0 L 670.0 1036.0 L 649.0 1044.0 L 624.0 1050.0 L 596.0 1053.0 L 568.0 1053.0 L 542.0 1050.0 L 519.0 1044.0 L 501.0 1036.0 L 488.0 1027.0 L 481.0 1017.0 L 479.0 1007.0 L 483.0 996.0 L 494.0 985.0 L 512.0 974.0 L 536.0 965.0 L 563.0 959.0 L 589.0 957.0 L 609.0 959.0 L 624.0 964.0 L 636.0 972.0 L 643.0 982.0 L 645.0 993.0 L 642.0 1005.0 L 634.0 1016.0 L 622.0 1025.0 L 606.0 1032.0 L 587.0 1037.0 L 566.0 1039.0 L 547.0 1038.0 L 531.0 1034.0 L 519.0 1028.0 L 512.0 1021.0 L 509.0 1013.0 L 511.0 1005.0 L 519.0 997.0 L 533.0 990.0 L 551.0 985.0 L 572.0 983.0 L 588.0 984.0 L 599.0 988.0 L 606.0 994.0 L 608.0 1001.0 L 606.0 1009.0 L 599.0 1016.0 L 588.0 1022.0 L 574.0 1026.0 L 558.0 1027.0 L 545.0 1025.0 L 536.0 1021.0 L 530.0 1015.0 L 528.0 1009.0 L 531.0 1002.0 L 539.0 996.0 L 552.0 991.0 L 567.0 989.0 L 578.0 990.0 L 585.0 994.0 L 588.0 999.0 L 586.0 1005.0 L 580.0 1010.0 L 570.0 1013.0 L 558.0 1014.0 L 549.0 1012.0 L 543.0 1008.0 L 541.0 1003.0 L 544.0 998.0 L 551.0 994.0 L 561.0 991.0 L 569.0 992.0 L 574.0 995.0 L 575.0 999.0 L 572.0 1003.0 L 565.0 1006.0 L 556.0 1007.0 L 550.0 1005.0 L 547.0 1001.0 L 549.0 997.0 L 555.0 993.0 L 562.0 992.0 L 566.0 994.0 L 567.0 997.0 L 564.0 1000.0 L 558.0 1002.0 L 553.0 1001.0 L 551.0 998.0 L 553.0 995.0 L 558.0 993.0 L 561.0 994.0 L 562.0 996.0 L 559.0 998.0 L 555.0 998.0 L 554.0 996.0 L 556.0 994.0 L 559.0 993.0 L 560.0 994.0 L 558.0 995.0 L 556.0 994.0 L 557.0 993.0 L 559.0 994.0 L 558.0 995.0 L 556.0 994.0 Z M 612.0 0.0 L 638.0 0.0 L 670.0 12.0 L 703.0 29.0 L 732.0 48.0 L 754.0 66.0 L 771.0 83.0 L 784.0 100.0 L 793.0 117.0 L 798.0 134.0 L 799.0 151.0 L 796.0 168.0 L 789.0 185.0 L 779.0 201.0 L 765.0 217.0 L 748.0 232.0 L 727.0 246.0 L 703.0 258.0 L 676.0 268.0 L 647.0 275.0 L 617.0 279.0 L 587.0 280.0 L 558.0 278.0 L 531.0 273.0 L 507.0 266.0 L 487.0 257.0 L 471.0 247.0 L 460.0 236.0 L 454.0 224.0 L 453.0 212.0 L 457.0 199.0 L 466.0 186.0 L 479.0 173.0 L 497.0 160.0 L 519.0 148.0 L 545.0 137.0 L 573.0 129.0 L 602.0 124.0 L 629.0 122.0 L 653.0 123.0 L 673.0 127.0 L 688.0 134.0 L 698.0 143.0 L 703.0 154.0 L 703.0 167.0 L 697.0 181.0 L 685.0 195.0 L 668.0 209.0 L 646.0 221.0 L 620.0 231.0 L 592.0 238.0 L 564.0 242.0 L 538.0 243.0 L 516.0 241.0 L 499.0 237.0 L 488.0 231.0 L 482.0 224.0 L 481.0 215.0 L 486.0 205.0 L 496.0 195.0 L 511.0 185.0 L 530.0 177.0 L 552.0 171.0 L 575.0 168.0 L 596.0 168.0 L 612.0 171.0 L 624.0 177.0 L 631.0 185.0 L 633.0 195.0 L 629.0 207.0 L 619.0 219.0 L 604.0 230.0 L 585.0 239.0 L 563.0 245.0 L 541.0 248.0 L 522.0 248.0 L 508.0 245.0 L 498.0 240.0 L 493.0 233.0 L 493.0 225.0 L 498.0 216.0 L 508.0 207.0 L 523.0 199.0 L 541.0 193.0 L 559.0 190.0 L 574.0 190.0 L 585.0 193.0 L 592.0 199.0 L 595.0 207.0 L 593.0 216.0 L 586.0 225.0 L 574.0 233.0 L 559.0 239.0 L 543.0 242.0 L 530.0 242.0 L 520.0 239.0 L 514.0 234.0 L 513.0 228.0 L 517.0 221.0 L 526.0 214.0 L 538.0 209.0 L 551.0 206.0 L 561.0 206.0 L 568.0 209.0 L 572.0 214.0 L 573.0 220.0 L 569.0 226.0 L 561.0 231.0 L 550.0 234.0 L 540.0 234.0 L 533.0 232.0 L 529.0 228.0 L 529.0 223.0 L 533.0 218.0 L 541.0 214.0 L 549.0 212.0 L 555.0 213.0 L 558.0 216.0 L 559.0 220.0 L 556.0 224.0 L 550.0 227.0 L 543.0 227.0 L 538.0 225.0 L 536.0 221.0 L 538.0 217.0 L 543.0 214.0 L 548.0 213.0 L 551.0 215.0 L 552.0 218.0 L 550.0 221.0 L 545.0 223.0 L 541.0 222.0 L 539.0 219.0 L 541.0 216.0 L 545.0 214.0 L 548.0 215.0 L 549.0 217.0 L 547.0 219.0 L 543.0 219.0 L 542.0 217.0 L 544.0 215.0 L 547.0 215.0 L 548.0 217.0 L 546.0 218.0 L 544.0 217.0 L 545.0 216.0 L 547.0 217.0 L 546.0 218.0 L 545.0 217.0 Z M 812.0 0.0 L 852.0 0.0 L 893.0 15.0 L 933.0 37.0 L 969.0 64.0 L 999.0 93.0 L 1022.0 123.0 L 1037.0 152.0 L 1045.0 180.0 L 1046.0 207.0 L 1040.0 233.0 L 1027.0 258.0 L 1008.0 281.0 L 983.0 302.0 L 953.0 320.0 L 919.0 334.0 L 882.0 344.0 L 843.0 349.0 L 804.0 349.0 L 767.0 344.0 L 733.0 335.0 L 703.0 322.0 L 679.0 307.0 L 661.0 290.0 L 650.0 272.0 L 647.0 253.0 L 651.0 233.0 L 662.0 213.0 L 679.0 194.0 L 702.0 176.0 L 730.0 160.0 L 762.0 147.0 L 796.0 138.0 L 829.0 133.0 L 859.0 132.0 L 884.0 135.0 L 903.0 142.0 L 916.0 152.0 L 923.0 164.0 L 924.0 178.0 L 919.0 194.0 L 907.0 211.0 L 889.0 228.0 L 866.0 243.0 L 839.0 255.0 L 809.0 264.0 L 778.0 269.0 L 748.0 271.0 L 721.0 269.0 L 698.0 264.0 L 681.0 257.0 L 670.0 248.0 L 665.0 237.0 L 666.0 225.0 L 673.0 212.0 L 686.0 199.0 L 704.0 187.0 L 726.0 177.0 L 751.0 170.0 L 776.0 166.0 L 798.0 166.0 L 815.0 169.0 L 827.0 175.0 L 834.0 184.0 L 836.0 195.0 L 832.0 208.0 L 822.0 221.0 L 807.0 233.0 L 788.0 243.0 L 767.0 250.0 L 746.0 254.0 L 727.0 254.0 L 711.0 251.0 L 700.0 245.0 L 693.0 237.0 L 692.0 228.0 L 697.0 218.0 L 708.0 208.0 L 724.0 200.0 L 743.0 194.0 L 761.0 192.0 L 776.0 193.0 L 787.0 197.0 L 794.0 204.0 L 797.0 213.0 L 795.0 223.0 L 787.0 233.0 L 774.0 242.0 L 758.0 248.0 L 741.0 252.0 L 726.0 252.0 L 714.0 249.0 L 706.0 244.0 L 702.0 237.0 L 703.0 229.0 L 710.0 221.0 L 721.0 214.0 L 735.0 209.0 L 749.0 207.0 L 760.0 208.0 L 768.0 212.0 L 772.0 218.0 L 773.0 225.0 L 769.0 232.0 L 760.0 238.0 L 748.0 242.0 L 736.0 243.0 L 726.0 241.0 L 719.0 237.0 L 716.0 231.0 L 718.0 225.0 L 725.0 219.0 L 735.0 215.0 L 745.0 213.0 L 753.0 214.0 L 758.0 217.0 L 761.0 222.0 L 760.0 228.0 L 754.0 233.0 L 745.0 237.0 L 735.0 238.0 L 727.0 236.0 L 722.0 232.0 L 720.0 227.0 L 723.0 222.0 L 730.0 217.0 L 738.0 214.0 L 745.0 214.0 L 749.0 217.0 L 751.0 221.0 L 750.0 226.0 L 744.0 230.0 L 736.0 233.0 L 728.0 233.0 L 722.0 231.0 L 719.0 227.0 L 721.0 223.0 L 727.0 219.0 L 734.0 217.0 L 739.0 218.0 L 742.0 221.0 L 742.0 225.0 L 738.0 229.0 L 731.0 231.0 L 725.0 231.0 L 721.0 229.0 L 719.0 225.0 L 721.0 221.0 L 727.0 218.0 L 732.0 217.0 L 735.0 219.0 L 736.0 222.0 L 733.0 225.0 L 728.0 227.0 L 723.0 226.0 L 720.0 223.0 L 722.0 220.0 L 727.0 218.0 L 731.0 219.0 L 732.0 221.0 L 730.0 223.0 L 726.0 224.0 L 723.0 222.0 L 724.0 219.0 L 728.0 218.0 L 730.0 219.0 L 729.0 221.0 L 726.0 221.0 L 725.0 219.0 L 727.0 218.0 L 730.0 219.0 L 729.0 220.0 L 727.0 219.0 Z"/>
</svg>