<?xml version="1.0" encoding="UTF-8"?>
<svg xmlns="http://www.w3.org/2000/svg" width="1254" height="1254" viewBox="0 0 1254 1254" role="img" aria-label="Black and white outline silhouette anime character">
  <rect width="100%" height="100%" fill="#ffffff"/>
  <path d="M 910.0 1210.0 L 909.0 1224.0 L 911.0 1235.0 L 911.0 1246.0 L 912.0 1247.0 L 912.0 1253.0 L 916.0 1253.0 L 916.0 1240.0 L 913.0 1213.0 L 912.0 1211.0 Z M 682.0 1207.0 L 683.0 1210.0 L 687.0 1212.0 L 697.0 1215.0 L 729.0 1230.0 L 752.0 1244.0 L 764.0 1253.0 L 775.0 1253.0 L 748.0 1234.0 L 727.0 1222.0 L 697.0 1209.0 L 688.0 1206.0 Z M 517.0 1048.0 L 515.0 1048.0 L 512.0 1051.0 L 496.0 1075.0 L 491.0 1080.0 L 485.0 1088.0 L 483.0 1088.0 L 482.0 1092.0 L 459.0 1116.0 L 457.0 1119.0 L 457.0 1122.0 L 460.0 1122.0 L 480.0 1102.0 L 503.0 1074.0 L 514.0 1058.0 L 517.0 1052.0 Z M 444.0 1011.0 L 444.0 1018.0 L 447.0 1025.0 L 449.0 1034.0 L 450.0 1044.0 L 450.0 1073.0 L 451.0 1075.0 L 454.0 1073.0 L 454.0 1033.0 L 451.0 1020.0 L 446.0 1011.0 Z M 505.0 905.0 L 504.0 909.0 L 507.0 924.0 L 521.0 977.0 L 527.0 996.0 L 530.0 1000.0 L 532.0 1000.0 L 532.0 995.0 L 525.0 973.0 L 510.0 908.0 L 509.0 906.0 Z M 460.0 847.0 L 457.0 851.0 L 454.0 864.0 L 449.0 878.0 L 434.0 908.0 L 413.0 942.0 L 385.0 978.0 L 385.0 982.0 L 389.0 980.0 L 400.0 967.0 L 416.0 946.0 L 434.0 919.0 L 447.0 894.0 L 454.0 878.0 L 461.0 854.0 Z M 362.0 0.0 L 406.0 41.0 L 433.0 73.0 L 449.0 95.0 L 465.0 121.0 L 479.0 149.0 L 478.0 152.0 L 457.0 150.0 L 417.0 150.0 L 379.0 156.0 L 348.0 164.0 L 301.0 181.0 L 265.0 199.0 L 263.0 201.0 L 264.0 205.0 L 312.0 220.0 L 372.0 247.0 L 400.0 264.0 L 429.0 284.0 L 464.0 313.0 L 463.0 317.0 L 460.0 319.0 L 426.0 326.0 L 394.0 337.0 L 384.0 343.0 L 386.0 347.0 L 424.0 348.0 L 465.0 354.0 L 511.0 366.0 L 539.0 377.0 L 540.0 380.0 L 537.0 392.0 L 537.0 411.0 L 539.0 423.0 L 544.0 439.0 L 563.0 480.0 L 582.0 512.0 L 594.0 529.0 L 594.0 533.0 L 542.0 536.0 L 519.0 540.0 L 500.0 546.0 L 488.0 552.0 L 474.0 562.0 L 459.0 576.0 L 449.0 588.0 L 442.0 591.0 L 432.0 599.0 L 422.0 614.0 L 414.0 633.0 L 398.0 648.0 L 388.0 662.0 L 383.0 672.0 L 382.0 686.0 L 386.0 698.0 L 391.0 707.0 L 391.0 711.0 L 333.0 777.0 L 311.0 808.0 L 291.0 841.0 L 290.0 868.0 L 295.0 897.0 L 298.0 907.0 L 311.0 937.0 L 324.0 960.0 L 313.0 1019.0 L 314.0 1046.0 L 322.0 1069.0 L 322.0 1074.0 L 290.0 1118.0 L 273.0 1147.0 L 262.0 1169.0 L 249.0 1206.0 L 246.0 1221.0 L 243.0 1253.0 L 250.0 1253.0 L 251.0 1233.0 L 256.0 1205.0 L 266.0 1177.0 L 280.0 1148.0 L 303.0 1110.0 L 319.0 1088.0 L 342.0 1064.0 L 347.0 1062.0 L 349.0 1058.0 L 353.0 1036.0 L 365.0 999.0 L 365.0 992.0 L 362.0 981.0 L 359.0 959.0 L 358.0 934.0 L 362.0 896.0 L 372.0 854.0 L 389.0 806.0 L 407.0 768.0 L 417.0 752.0 L 420.0 753.0 L 426.0 767.0 L 433.0 777.0 L 438.0 782.0 L 440.0 781.0 L 429.0 761.0 L 420.0 732.0 L 418.0 715.0 L 419.0 693.0 L 423.0 679.0 L 433.0 667.0 L 441.0 664.0 L 461.0 661.0 L 510.0 661.0 L 545.0 665.0 L 551.0 668.0 L 525.0 693.0 L 511.0 709.0 L 491.0 736.0 L 489.0 743.0 L 493.0 741.0 L 524.0 702.0 L 546.0 680.0 L 562.0 669.0 L 569.0 669.0 L 596.0 679.0 L 608.0 687.0 L 624.0 702.0 L 646.0 732.0 L 653.0 746.0 L 660.0 765.0 L 659.0 769.0 L 604.0 771.0 L 563.0 777.0 L 540.0 783.0 L 521.0 790.0 L 512.0 796.0 L 515.0 798.0 L 534.0 791.0 L 563.0 783.0 L 587.0 779.0 L 623.0 776.0 L 660.0 777.0 L 664.0 779.0 L 668.0 795.0 L 667.0 802.0 L 656.0 832.0 L 641.0 899.0 L 628.0 934.0 L 615.0 959.0 L 591.0 995.0 L 557.0 1032.0 L 553.0 1041.0 L 543.0 1088.0 L 538.0 1103.0 L 519.0 1129.0 L 496.0 1154.0 L 488.0 1165.0 L 487.0 1170.0 L 499.0 1160.0 L 504.0 1161.0 L 485.0 1215.0 L 466.0 1253.0 L 475.0 1252.0 L 489.0 1220.0 L 494.0 1212.0 L 563.0 1223.0 L 597.0 1231.0 L 599.0 1233.0 L 599.0 1238.0 L 596.0 1244.0 L 594.0 1253.0 L 599.0 1253.0 L 604.0 1239.0 L 607.0 1236.0 L 613.0 1235.0 L 652.0 1247.0 L 656.0 1250.0 L 656.0 1253.0 L 665.0 1252.0 L 687.0 1253.0 L 636.0 1235.0 L 605.0 1227.0 L 598.0 1224.0 L 540.0 1212.0 L 511.0 1207.0 L 504.0 1207.0 L 498.0 1204.0 L 499.0 1195.0 L 506.0 1178.0 L 519.0 1139.0 L 525.0 1133.0 L 553.0 1136.0 L 591.0 1144.0 L 626.0 1154.0 L 682.0 1174.0 L 730.0 1197.0 L 753.0 1210.0 L 785.0 1231.0 L 806.0 1253.0 L 815.0 1253.0 L 802.0 1238.0 L 787.0 1224.0 L 751.0 1201.0 L 710.0 1180.0 L 666.0 1134.0 L 604.0 1062.0 L 591.0 1053.0 L 600.0 1066.0 L 619.0 1087.0 L 637.0 1123.0 L 655.0 1153.0 L 654.0 1156.0 L 591.0 1137.0 L 564.0 1131.0 L 539.0 1128.0 L 531.0 1124.0 L 543.0 1108.0 L 546.0 1102.0 L 560.0 1041.0 L 563.0 1039.0 L 562.0 1036.0 L 587.0 1010.0 L 596.0 999.0 L 601.0 990.0 L 604.0 988.0 L 606.0 988.0 L 625.0 1004.0 L 654.0 1024.0 L 684.0 1048.0 L 686.0 1074.0 L 689.0 1089.0 L 696.0 1110.0 L 707.0 1132.0 L 718.0 1146.0 L 720.0 1151.0 L 722.0 1151.0 L 735.0 1162.0 L 753.0 1171.0 L 767.0 1174.0 L 788.0 1174.0 L 801.0 1171.0 L 826.0 1159.0 L 847.0 1144.0 L 865.0 1125.0 L 880.0 1104.0 L 907.0 1061.0 L 925.0 1025.0 L 930.0 1012.0 L 935.0 1012.0 L 932.0 1027.0 L 911.0 1097.0 L 894.0 1177.0 L 885.0 1201.0 L 873.0 1211.0 L 857.0 1219.0 L 841.0 1224.0 L 821.0 1226.0 L 819.0 1227.0 L 819.0 1230.0 L 833.0 1235.0 L 848.0 1238.0 L 848.0 1240.0 L 851.0 1241.0 L 853.0 1253.0 L 859.0 1253.0 L 858.0 1244.0 L 854.0 1231.0 L 855.0 1226.0 L 875.0 1217.0 L 884.0 1211.0 L 890.0 1205.0 L 898.0 1186.0 L 902.0 1170.0 L 904.0 1168.0 L 929.0 1161.0 L 963.0 1155.0 L 999.0 1145.0 L 991.0 1168.0 L 980.0 1186.0 L 975.0 1197.0 L 972.0 1227.0 L 967.0 1253.0 L 974.0 1253.0 L 978.0 1231.0 L 982.0 1196.0 L 1001.0 1161.0 L 1008.0 1140.0 L 1013.0 1134.0 L 1023.0 1128.0 L 1031.0 1121.0 L 1037.0 1110.0 L 1038.0 1103.0 L 1037.0 1083.0 L 1028.0 1054.0 L 1024.0 1018.0 L 1022.0 1010.0 L 1022.0 1004.0 L 1028.0 984.0 L 1027.0 971.0 L 1019.0 946.0 L 1008.0 923.0 L 1006.0 889.0 L 1001.0 868.0 L 991.0 852.0 L 974.0 830.0 L 973.0 762.0 L 967.0 735.0 L 957.0 718.0 L 961.0 707.0 L 960.0 697.0 L 953.0 686.0 L 936.0 668.0 L 898.0 645.0 L 866.0 628.0 L 863.0 625.0 L 858.0 606.0 L 853.0 574.0 L 851.0 532.0 L 857.0 524.0 L 968.0 557.0 L 1003.0 565.0 L 1005.0 564.0 L 1006.0 560.0 L 1005.0 558.0 L 977.0 533.0 L 944.0 508.0 L 932.0 493.0 L 1001.0 498.0 L 1050.0 500.0 L 1076.0 500.0 L 1112.0 497.0 L 1114.0 495.0 L 1114.0 492.0 L 1090.0 471.0 L 998.0 406.0 L 998.0 403.0 L 1085.0 398.0 L 1092.0 397.0 L 1096.0 393.0 L 1092.0 389.0 L 1078.0 381.0 L 1028.0 356.0 L 971.0 333.0 L 941.0 323.0 L 943.0 317.0 L 969.0 314.0 L 1011.0 315.0 L 1032.0 318.0 L 1057.0 324.0 L 1091.0 339.0 L 1093.0 338.0 L 1093.0 336.0 L 1088.0 332.0 L 1066.0 322.0 L 1051.0 317.0 L 1027.0 312.0 L 999.0 309.0 L 971.0 309.0 L 948.0 312.0 L 940.0 311.0 L 942.0 296.0 L 942.0 270.0 L 940.0 251.0 L 934.0 230.0 L 925.0 213.0 L 912.0 196.0 L 895.0 180.0 L 878.0 168.0 L 878.0 166.0 L 884.0 158.0 L 898.0 133.0 L 905.0 118.0 L 914.0 93.0 L 919.0 72.0 L 923.0 46.0 L 924.0 33.0 L 923.0 0.0 L 918.0 0.0 L 919.0 15.0 L 918.0 44.0 L 910.0 87.0 L 900.0 115.0 L 888.0 138.0 L 885.0 138.0 L 885.0 135.0 L 894.0 99.0 L 900.0 63.0 L 901.0 28.0 L 898.0 0.0 L 859.0 0.0 L 857.0 14.0 L 848.0 47.0 L 832.0 88.0 L 829.0 88.0 L 829.0 56.0 L 827.0 30.0 L 820.0 0.0 L 646.0 0.0 L 650.0 44.0 L 648.0 66.0 L 623.0 36.0 L 587.0 0.0 Z M 829.0 1045.0 L 840.0 1058.0 L 843.0 1064.0 L 844.0 1070.0 L 841.0 1077.0 L 825.0 1102.0 L 810.0 1123.0 L 802.0 1130.0 L 794.0 1125.0 L 786.0 1116.0 L 786.0 1113.0 L 783.0 1111.0 L 783.0 1108.0 L 787.0 1100.0 L 822.0 1049.0 L 826.0 1045.0 Z M 1016.0 1021.0 L 1018.0 1023.0 L 1022.0 1057.0 L 1028.0 1074.0 L 1032.0 1092.0 L 1032.0 1101.0 L 1029.0 1113.0 L 1025.0 1118.0 L 1013.0 1127.0 L 986.0 1141.0 L 962.0 1148.0 L 924.0 1155.0 L 918.0 1153.0 L 937.0 1139.0 L 955.0 1121.0 L 972.0 1100.0 L 990.0 1071.0 L 1014.0 1022.0 Z M 785.0 1013.0 L 783.0 1019.0 L 779.0 1020.0 L 779.0 1018.0 L 782.0 1012.0 Z M 784.0 1007.0 L 788.0 1008.0 L 788.0 1010.0 L 785.0 1012.0 L 783.0 1010.0 Z M 934.0 1003.0 L 937.0 1004.0 L 937.0 1007.0 L 935.0 1009.0 L 933.0 1006.0 Z M 787.0 1002.0 L 790.0 1003.0 L 789.0 1007.0 L 785.0 1006.0 L 785.0 1004.0 Z M 790.0 995.0 L 793.0 996.0 L 793.0 998.0 L 790.0 1002.0 L 788.0 1000.0 L 788.0 997.0 Z M 792.0 989.0 L 795.0 990.0 L 793.0 995.0 L 790.0 993.0 Z M 875.0 987.0 L 878.0 988.0 L 879.0 995.0 L 876.0 1002.0 L 872.0 1008.0 L 870.0 1009.0 L 868.0 1007.0 L 867.0 1003.0 L 869.0 1000.0 L 870.0 995.0 Z M 822.0 977.0 L 823.0 984.0 L 838.0 992.0 L 849.0 1005.0 L 858.0 1023.0 L 874.0 1062.0 L 878.0 1066.0 L 883.0 1067.0 L 883.0 1069.0 L 867.0 1094.0 L 846.0 1120.0 L 833.0 1133.0 L 820.0 1142.0 L 810.0 1144.0 L 851.0 1090.0 L 859.0 1078.0 L 862.0 1071.0 L 861.0 1059.0 L 848.0 1035.0 L 829.0 1011.0 L 823.0 1012.0 L 810.0 1035.0 L 804.0 1043.0 L 798.0 1056.0 L 778.0 1085.0 L 757.0 1112.0 L 756.0 1115.0 L 758.0 1121.0 L 765.0 1125.0 L 776.0 1128.0 L 800.0 1150.0 L 792.0 1154.0 L 778.0 1156.0 L 764.0 1155.0 L 748.0 1148.0 L 737.0 1138.0 L 725.0 1121.0 L 719.0 1109.0 L 720.0 1106.0 L 723.0 1107.0 L 724.0 1113.0 L 727.0 1114.0 L 732.0 1110.0 L 744.0 1094.0 L 763.0 1055.0 L 774.0 1029.0 L 777.0 1029.0 L 779.0 1033.0 L 784.0 1034.0 L 795.0 1028.0 L 802.0 1021.0 L 808.0 1009.0 L 817.0 978.0 Z M 795.0 932.0 L 799.0 934.0 L 797.0 941.0 L 789.0 953.0 L 761.0 1007.0 L 742.0 1037.0 L 728.0 1065.0 L 724.0 1070.0 L 721.0 1087.0 L 721.0 1104.0 L 717.0 1104.0 L 710.0 1078.0 L 709.0 1045.0 L 714.0 1012.0 L 727.0 971.0 L 733.0 971.0 L 735.0 977.0 L 741.0 982.0 L 748.0 982.0 L 754.0 980.0 L 764.0 973.0 L 771.0 966.0 L 793.0 937.0 Z M 802.0 925.0 L 801.0 930.0 L 797.0 930.0 L 798.0 926.0 Z M 703.0 871.0 L 701.0 873.0 L 697.0 874.0 L 677.0 883.0 L 674.0 881.0 L 676.0 879.0 L 688.0 875.0 L 700.0 869.0 Z M 730.0 855.0 L 727.0 861.0 L 714.0 868.0 L 708.0 869.0 L 706.0 871.0 L 703.0 870.0 L 704.0 867.0 L 720.0 859.0 L 727.0 854.0 Z M 737.0 851.0 L 733.0 855.0 L 730.0 853.0 L 732.0 851.0 Z M 842.0 849.0 L 842.0 854.0 L 836.0 867.0 L 814.0 903.0 L 804.0 923.0 L 800.0 923.0 L 800.0 921.0 L 809.0 901.0 L 810.0 896.0 L 807.0 889.0 L 801.0 890.0 L 798.0 897.0 L 788.0 910.0 L 760.0 941.0 L 742.0 955.0 L 738.0 957.0 L 734.0 956.0 L 741.0 940.0 L 755.0 918.0 L 771.0 898.0 L 791.0 878.0 L 821.0 856.0 L 834.0 850.0 Z M 875.0 843.0 L 885.0 845.0 L 893.0 848.0 L 906.0 857.0 L 919.0 870.0 L 924.0 877.0 L 928.0 885.0 L 934.0 906.0 L 935.0 917.0 L 934.0 940.0 L 932.0 954.0 L 921.0 994.0 L 898.0 1043.0 L 892.0 1052.0 L 889.0 1052.0 L 887.0 1050.0 L 880.0 1030.0 L 881.0 1025.0 L 895.0 1003.0 L 899.0 994.0 L 896.0 980.0 L 890.0 969.0 L 890.0 964.0 L 893.0 959.0 L 895.0 958.0 L 899.0 959.0 L 904.0 963.0 L 904.0 965.0 L 907.0 966.0 L 910.0 975.0 L 912.0 977.0 L 916.0 977.0 L 920.0 973.0 L 921.0 970.0 L 922.0 955.0 L 919.0 944.0 L 905.0 930.0 L 883.0 898.0 L 872.0 888.0 L 870.0 888.0 L 867.0 891.0 L 865.0 912.0 L 881.0 935.0 L 879.0 944.0 L 873.0 947.0 L 864.0 936.0 L 859.0 935.0 L 853.0 944.0 L 854.0 951.0 L 865.0 964.0 L 865.0 970.0 L 855.0 983.0 L 851.0 982.0 L 830.0 968.0 L 825.0 969.0 L 823.0 977.0 L 820.0 976.0 L 819.0 974.0 L 824.0 948.0 L 824.0 940.0 L 820.0 935.0 L 820.0 933.0 L 844.0 895.0 L 855.0 875.0 L 856.0 855.0 L 851.0 845.0 Z M 397.0 716.0 L 402.0 723.0 L 415.0 736.0 L 415.0 742.0 L 402.0 764.0 L 387.0 795.0 L 374.0 828.0 L 364.0 859.0 L 356.0 893.0 L 352.0 927.0 L 353.0 963.0 L 359.0 996.0 L 350.0 1022.0 L 343.0 1054.0 L 333.0 1064.0 L 329.0 1066.0 L 325.0 1060.0 L 320.0 1041.0 L 320.0 1016.0 L 328.0 974.0 L 331.0 968.0 L 336.0 972.0 L 339.0 972.0 L 339.0 969.0 L 320.0 940.0 L 306.0 909.0 L 301.0 894.0 L 298.0 878.0 L 297.0 845.0 L 316.0 813.0 L 334.0 787.0 L 358.0 758.0 Z M 814.0 610.0 L 830.0 618.0 L 839.0 621.0 L 874.0 639.0 L 929.0 672.0 L 950.0 694.0 L 954.0 701.0 L 953.0 707.0 L 948.0 708.0 L 935.0 696.0 L 911.0 677.0 L 844.0 631.0 L 813.0 613.0 Z M 481.0 567.0 L 482.0 571.0 L 475.0 571.0 Z M 435.0 606.0 L 441.0 600.0 L 458.0 590.0 L 492.0 574.0 L 519.0 566.0 L 558.0 562.0 L 585.0 563.0 L 603.0 567.0 L 618.0 572.0 L 638.0 582.0 L 652.0 592.0 L 671.0 612.0 L 686.0 637.0 L 695.0 662.0 L 702.0 696.0 L 706.0 733.0 L 703.0 774.0 L 697.0 735.0 L 687.0 691.0 L 680.0 673.0 L 675.0 664.0 L 667.0 654.0 L 664.0 654.0 L 664.0 657.0 L 675.0 676.0 L 682.0 697.0 L 690.0 733.0 L 690.0 739.0 L 694.0 758.0 L 698.0 789.0 L 699.0 813.0 L 697.0 823.0 L 690.0 836.0 L 685.0 837.0 L 684.0 824.0 L 677.0 789.0 L 667.0 759.0 L 657.0 737.0 L 641.0 712.0 L 628.0 696.0 L 611.0 680.0 L 590.0 668.0 L 566.0 661.0 L 511.0 654.0 L 448.0 655.0 L 429.0 658.0 L 410.0 664.0 L 395.0 676.0 L 389.0 686.0 L 389.0 677.0 L 394.0 666.0 L 402.0 654.0 L 421.0 636.0 L 423.0 628.0 Z M 482.0 565.0 L 494.0 557.0 L 509.0 550.0 L 518.0 547.0 L 548.0 542.0 L 573.0 540.0 L 608.0 540.0 L 642.0 543.0 L 658.0 547.0 L 684.0 560.0 L 725.0 586.0 L 799.0 645.0 L 803.0 645.0 L 803.0 643.0 L 773.0 616.0 L 749.0 597.0 L 747.0 593.0 L 745.0 594.0 L 744.0 590.0 L 756.0 593.0 L 776.0 601.0 L 818.0 623.0 L 852.0 644.0 L 898.0 676.0 L 930.0 701.0 L 951.0 722.0 L 957.0 730.0 L 962.0 741.0 L 966.0 761.0 L 968.0 798.0 L 967.0 851.0 L 968.0 853.0 L 971.0 853.0 L 972.0 848.0 L 977.0 845.0 L 991.0 864.0 L 996.0 874.0 L 1000.0 896.0 L 1001.0 923.0 L 1015.0 953.0 L 1020.0 968.0 L 1021.0 987.0 L 1009.0 1019.0 L 981.0 1074.0 L 958.0 1108.0 L 942.0 1125.0 L 924.0 1136.0 L 912.0 1140.0 L 911.0 1139.0 L 910.0 1133.0 L 917.0 1100.0 L 933.0 1047.0 L 942.0 1007.0 L 944.0 994.0 L 943.0 990.0 L 940.0 993.0 L 939.0 1000.0 L 935.0 1001.0 L 940.0 986.0 L 946.0 963.0 L 952.0 924.0 L 952.0 906.0 L 948.0 883.0 L 942.0 867.0 L 930.0 847.0 L 921.0 837.0 L 902.0 823.0 L 884.0 816.0 L 872.0 814.0 L 848.0 815.0 L 828.0 821.0 L 808.0 831.0 L 795.0 840.0 L 777.0 855.0 L 757.0 875.0 L 741.0 895.0 L 726.0 918.0 L 711.0 946.0 L 701.0 969.0 L 690.0 1003.0 L 686.0 1031.0 L 684.0 1037.0 L 680.0 1038.0 L 653.0 1017.0 L 632.0 1003.0 L 610.0 984.0 L 609.0 980.0 L 624.0 956.0 L 635.0 934.0 L 639.0 922.0 L 730.0 865.0 L 746.0 849.0 L 800.0 785.0 L 829.0 737.0 L 829.0 734.0 L 827.0 734.0 L 812.0 758.0 L 787.0 794.0 L 755.0 830.0 L 716.0 856.0 L 691.0 869.0 L 670.0 878.0 L 669.0 880.0 L 673.0 881.0 L 671.0 885.0 L 650.0 891.0 L 652.0 881.0 L 669.0 869.0 L 688.0 850.0 L 699.0 835.0 L 705.0 820.0 L 706.0 801.0 L 713.0 775.0 L 712.0 725.0 L 706.0 680.0 L 697.0 646.0 L 687.0 624.0 L 674.0 605.0 L 653.0 584.0 L 624.0 567.0 L 601.0 559.0 L 587.0 556.0 L 544.0 556.0 L 514.0 560.0 L 502.0 563.0 L 487.0 569.0 L 482.0 568.0 Z M 698.0 558.0 L 722.0 546.0 L 755.0 524.0 L 788.0 492.0 L 806.0 472.0 L 818.0 478.0 L 826.0 480.0 L 837.0 480.0 L 846.0 477.0 L 850.0 478.0 L 845.0 519.0 L 845.0 553.0 L 849.0 590.0 L 854.0 614.0 L 853.0 620.0 L 808.0 601.0 L 806.0 599.0 L 751.0 580.0 L 714.0 571.0 L 699.0 562.0 Z M 579.0 225.0 L 579.0 227.0 L 576.0 231.0 L 572.0 241.0 L 568.0 239.0 L 576.0 225.0 Z M 756.0 205.0 L 771.0 200.0 L 790.0 196.0 L 797.0 197.0 L 800.0 199.0 L 805.0 211.0 L 805.0 215.0 L 808.0 224.0 L 807.0 237.0 L 804.0 239.0 L 803.0 237.0 L 800.0 236.0 L 796.0 226.0 L 787.0 217.0 L 776.0 211.0 Z M 666.0 170.0 L 668.0 175.0 L 663.0 186.0 L 658.0 204.0 L 653.0 234.0 L 653.0 264.0 L 656.0 268.0 L 658.0 268.0 L 670.0 259.0 L 672.0 261.0 L 694.0 239.0 L 717.0 223.0 L 723.0 223.0 L 708.0 240.0 L 706.0 244.0 L 708.0 247.0 L 731.0 235.0 L 743.0 232.0 L 753.0 232.0 L 768.0 238.0 L 779.0 246.0 L 786.0 253.0 L 789.0 254.0 L 792.0 258.0 L 791.0 260.0 L 792.0 262.0 L 796.0 265.0 L 778.0 294.0 L 773.0 296.0 L 771.0 286.0 L 766.0 277.0 L 760.0 270.0 L 750.0 264.0 L 746.0 263.0 L 732.0 264.0 L 721.0 270.0 L 712.0 279.0 L 709.0 285.0 L 709.0 288.0 L 712.0 288.0 L 717.0 280.0 L 728.0 271.0 L 735.0 268.0 L 746.0 268.0 L 753.0 271.0 L 761.0 278.0 L 768.0 293.0 L 769.0 304.0 L 766.0 309.0 L 769.0 313.0 L 769.0 323.0 L 766.0 342.0 L 763.0 350.0 L 761.0 352.0 L 732.0 353.0 L 730.0 355.0 L 745.0 357.0 L 764.0 356.0 L 768.0 352.0 L 773.0 331.0 L 773.0 322.0 L 777.0 310.0 L 790.0 306.0 L 811.0 297.0 L 813.0 295.0 L 823.0 292.0 L 822.0 298.0 L 814.0 316.0 L 802.0 334.0 L 791.0 348.0 L 792.0 350.0 L 811.0 350.0 L 825.0 347.0 L 828.0 349.0 L 813.0 366.0 L 814.0 370.0 L 829.0 369.0 L 832.0 370.0 L 830.0 380.0 L 831.0 384.0 L 834.0 384.0 L 845.0 370.0 L 860.0 356.0 L 869.0 352.0 L 881.0 352.0 L 889.0 356.0 L 893.0 360.0 L 892.0 362.0 L 895.0 363.0 L 898.0 370.0 L 900.0 382.0 L 899.0 410.0 L 895.0 430.0 L 888.0 445.0 L 883.0 451.0 L 875.0 457.0 L 858.0 467.0 L 838.0 474.0 L 823.0 474.0 L 808.0 466.0 L 805.0 466.0 L 760.0 511.0 L 750.0 519.0 L 740.0 524.0 L 717.0 532.0 L 671.0 544.0 L 667.0 544.0 L 655.0 539.0 L 645.0 537.0 L 609.0 534.0 L 603.0 531.0 L 581.0 499.0 L 563.0 467.0 L 555.0 450.0 L 547.0 428.0 L 543.0 406.0 L 545.0 385.0 L 558.0 344.0 L 559.0 287.0 L 563.0 260.0 L 564.0 266.0 L 567.0 266.0 L 575.0 262.0 L 580.0 262.0 L 581.0 266.0 L 583.0 267.0 L 586.0 266.0 L 596.0 244.0 L 600.0 240.0 L 606.0 237.0 L 614.0 237.0 L 618.0 239.0 L 626.0 246.0 L 631.0 254.0 L 633.0 255.0 L 635.0 253.0 L 635.0 246.0 L 632.0 236.0 L 628.0 229.0 L 615.0 217.0 L 615.0 215.0 L 620.0 208.0 L 641.0 187.0 Z M 633.0 446.0 L 638.0 450.0 L 641.0 451.0 L 647.0 451.0 L 659.0 447.0 L 661.0 445.0 L 661.0 442.0 L 659.0 440.0 L 655.0 439.0 L 640.0 439.0 L 634.0 441.0 Z M 641.0 446.0 L 642.0 444.0 L 646.0 447.0 Z M 875.0 431.0 L 858.0 440.0 L 848.0 443.0 L 840.0 444.0 L 838.0 445.0 L 837.0 448.0 L 839.0 449.0 L 846.0 448.0 L 860.0 444.0 L 870.0 438.0 Z M 691.0 400.0 L 690.0 397.0 L 688.0 397.0 L 682.0 403.0 L 678.0 405.0 L 663.0 410.0 L 650.0 413.0 L 630.0 415.0 L 616.0 411.0 L 616.0 413.0 L 619.0 416.0 L 628.0 419.0 L 639.0 419.0 L 653.0 417.0 L 677.0 410.0 L 685.0 406.0 L 690.0 402.0 Z M 883.0 368.0 L 876.0 365.0 L 869.0 366.0 L 865.0 368.0 L 853.0 379.0 L 846.0 390.0 L 845.0 393.0 L 845.0 401.0 L 846.0 404.0 L 851.0 410.0 L 853.0 410.0 L 851.0 401.0 L 856.0 399.0 L 863.0 407.0 L 865.0 413.0 L 865.0 417.0 L 864.0 419.0 L 857.0 425.0 L 853.0 422.0 L 846.0 420.0 L 836.0 420.0 L 833.0 421.0 L 827.0 426.0 L 825.0 432.0 L 826.0 434.0 L 828.0 435.0 L 834.0 433.0 L 839.0 433.0 L 847.0 436.0 L 851.0 436.0 L 856.0 434.0 L 867.0 423.0 L 869.0 418.0 L 869.0 413.0 L 866.0 403.0 L 859.0 395.0 L 852.0 391.0 L 856.0 386.0 L 860.0 384.0 L 865.0 384.0 L 865.0 386.0 L 868.0 387.0 L 870.0 391.0 L 873.0 404.0 L 876.0 403.0 L 876.0 398.0 L 874.0 389.0 L 868.0 374.0 L 872.0 372.0 L 877.0 372.0 L 881.0 374.0 L 885.0 379.0 L 888.0 388.0 L 889.0 409.0 L 891.0 408.0 L 893.0 399.0 L 892.0 383.0 L 889.0 375.0 Z M 837.0 427.0 L 838.0 425.0 L 848.0 426.0 L 847.0 430.0 L 839.0 429.0 Z M 683.0 367.0 L 683.0 369.0 L 693.0 369.0 L 704.0 367.0 L 707.0 370.0 L 704.0 372.0 L 704.0 374.0 L 733.0 370.0 L 737.0 371.0 L 741.0 374.0 L 766.0 376.0 L 783.0 380.0 L 788.0 380.0 L 788.0 378.0 L 781.0 375.0 L 767.0 372.0 L 760.0 372.0 L 753.0 368.0 L 757.0 368.0 L 756.0 365.0 L 753.0 364.0 L 733.0 364.0 L 732.0 361.0 L 706.0 362.0 L 687.0 365.0 Z M 642.0 343.0 L 622.0 347.0 L 619.0 350.0 L 620.0 373.0 L 623.0 384.0 L 629.0 389.0 L 632.0 389.0 L 640.0 385.0 L 643.0 381.0 L 643.0 374.0 L 637.0 364.0 L 631.0 358.0 L 628.0 351.0 L 636.0 350.0 L 641.0 348.0 L 644.0 345.0 Z M 626.0 359.0 L 638.0 375.0 L 638.0 379.0 L 634.0 383.0 L 631.0 384.0 L 628.0 381.0 L 626.0 375.0 L 624.0 362.0 Z M 618.0 304.0 L 616.0 305.0 L 612.0 310.0 L 610.0 318.0 L 610.0 323.0 L 613.0 332.0 L 618.0 337.0 L 623.0 337.0 L 626.0 335.0 L 629.0 329.0 L 630.0 325.0 L 630.0 315.0 L 629.0 311.0 L 625.0 305.0 L 623.0 304.0 Z M 733.0 295.0 L 729.0 296.0 L 724.0 300.0 L 722.0 303.0 L 720.0 309.0 L 720.0 313.0 L 719.0 314.0 L 721.0 325.0 L 722.0 327.0 L 727.0 331.0 L 734.0 331.0 L 737.0 329.0 L 741.0 324.0 L 743.0 318.0 L 743.0 306.0 L 742.0 302.0 L 737.0 296.0 Z M 616.0 278.0 L 609.0 275.0 L 600.0 276.0 L 591.0 284.0 L 587.0 290.0 L 581.0 305.0 L 577.0 326.0 L 577.0 358.0 L 578.0 370.0 L 569.0 373.0 L 557.0 379.0 L 555.0 381.0 L 559.0 382.0 L 563.0 380.0 L 566.0 381.0 L 566.0 383.0 L 569.0 383.0 L 586.0 377.0 L 588.0 380.0 L 587.0 380.0 L 587.0 383.0 L 590.0 383.0 L 606.0 376.0 L 608.0 373.0 L 599.0 373.0 L 598.0 371.0 L 593.0 370.0 L 594.0 366.0 L 598.0 366.0 L 603.0 364.0 L 603.0 362.0 L 601.0 361.0 L 591.0 363.0 L 583.0 362.0 L 582.0 358.0 L 582.0 326.0 L 587.0 302.0 L 593.0 289.0 L 599.0 282.0 L 603.0 280.0 L 610.0 280.0 L 614.0 282.0 L 620.0 288.0 L 623.0 293.0 L 625.0 293.0 L 625.0 289.0 L 623.0 285.0 Z M 590.0 367.0 L 593.0 368.0 L 592.0 371.0 L 589.0 370.0 Z" fill="#000000" fill-rule="evenodd" clip-rule="evenodd"/>
</svg>
